<?xml version="1.0" encoding="UTF-8"?>
<svg width="255px" height="106px" viewBox="0 0 255 106" version="1.1" xmlns="http://www.w3.org/2000/svg" xmlns:xlink="http://www.w3.org/1999/xlink">
    <title>Artboard</title>
    <g id="Artboard" stroke="none" stroke-width="1" fill="none" fill-rule="evenodd">
        <g id="LogoSVGWhite" transform="translate(4.263571, 3.000000)" fill="#FFFFFF" fill-rule="nonzero">
            <polygon id="Path" points="68.0601093 2.31464481 68.0601093 27.2272131 46.8715847 27.2272131 46.8715847 92.2053552 21.1885246 92.2053552 21.1885246 27.2272131 0 27.2272131 0 2.31464481"></polygon>
            <path d="M139.908935,80.5163934 C130.775961,89.5054645 119.551792,94 106.236429,94 C92.9210647,94 81.6755571,89.4840619 72.4999057,80.4521858 C63.3242543,71.4203097 58.7364286,60.2695811 58.7364286,47 C58.7364286,33.7304189 63.3242543,22.5796903 72.4999057,13.5478142 C81.6755571,4.51593807 92.9210647,0 106.236429,0 C119.551792,0 130.7973,4.51593807 139.972951,13.5478142 C149.148603,22.5796903 153.736429,33.7304189 153.736429,47 C153.736429,60.2695811 149.127264,71.4417122 139.908935,80.5163934 Z M89.9118672,62.7882353 C94.1145962,66.9294118 99.38945,69 105.736429,69 C112.083407,69 117.336818,66.9078431 121.496662,62.7235294 C125.656507,58.5392157 127.736429,53.2980392 127.736429,47 C127.736429,40.7019608 125.656507,35.4607843 121.496662,31.2764706 C117.336818,27.0921569 112.083407,25 105.736429,25 C99.38945,25 94.1360387,27.0921569 89.9761947,31.2764706 C85.8163506,35.4607843 83.7364286,40.7019608 83.7364286,47 C83.7364286,53.2980392 85.7949081,58.5607843 89.9118672,62.7882353 Z" id="Shape"></path>
            <polygon id="Path" points="241.029664 2.31464481 241.029664 92.2053552 215.346604 92.2053552 215.346604 48.4157377 195.313817 82.0605464 193.002342 82.0605464 172.969555 48.4157377 172.969555 92.2053552 147.286495 92.2053552 147.286495 2.31464481 172.969555 2.31464481 194.15808 38.9130055 215.346604 2.31464481"></polygon>
        </g>
    </g>
</svg>