<?xml version="1.0" encoding="UTF-8"?>
<svg width="242px" height="95px" viewBox="0 0 242 95" version="1.1" xmlns="http://www.w3.org/2000/svg" xmlns:xlink="http://www.w3.org/1999/xlink">
    <title>KIDS IN MOTION</title>
    <g id="Page-1" stroke="none" stroke-width="1" fill="none" fill-rule="evenodd">
        <g id="Artboard" transform="translate(-99.000000, -110.000000)" fill="#000000" fill-rule="nonzero">
            <g id="KIDS IN MOTION" transform="translate(99.263571, 110.260000)">
                <polygon id="Path" points="68.0601093 2.05464481 68.0601093 26.9672131 46.8715847 26.9672131 46.8715847 91.9453552 21.1885246 91.9453552 21.1885246 26.9672131 0 26.9672131 0 2.05464481"></polygon>
                <path d="M139.908935,80.2563934 C130.775961,89.2454645 119.551792,93.74 106.236429,93.74 C92.9210647,93.74 81.6755571,89.2240619 72.4999057,80.1921858 C63.3242543,71.1603097 58.7364286,60.0095811 58.7364286,46.74 C58.7364286,33.4704189 63.3242543,22.3196903 72.4999057,13.2878142 C81.6755571,4.25593807 92.9210647,-0.26 106.236429,-0.26 C119.551792,-0.26 130.7973,4.25593807 139.972951,13.2878142 C149.148603,22.3196903 153.736429,33.4704189 153.736429,46.74 C153.736429,60.0095811 149.127264,71.1817122 139.908935,80.2563934 Z M89.9118672,62.5282353 C94.1145962,66.6694118 99.38945,68.74 105.736429,68.74 C112.083407,68.74 117.336818,66.6478431 121.496662,62.4635294 C125.656507,58.2792157 127.736429,53.0380392 127.736429,46.74 C127.736429,40.4419608 125.656507,35.2007843 121.496662,31.0164706 C117.336818,26.8321569 112.083407,24.74 105.736429,24.74 C99.38945,24.74 94.1360387,26.8321569 89.9761947,31.0164706 C85.8163506,35.2007843 83.7364286,40.4419608 83.7364286,46.74 C83.7364286,53.0380392 85.7949081,58.3007843 89.9118672,62.5282353 Z" id="Shape"></path>
                <polygon id="Path" points="241.029664 2.05464481 241.029664 91.9453552 215.346604 91.9453552 215.346604 48.1557377 195.313817 81.8005464 193.002342 81.8005464 172.969555 48.1557377 172.969555 91.9453552 147.286495 91.9453552 147.286495 2.05464481 172.969555 2.05464481 194.15808 38.6530055 215.346604 2.05464481"></polygon>
            </g>
        </g>
    </g>
</svg>