<svg width="340" height="340" viewBox="0 0 340 340" fill="none" xmlns="http://www.w3.org/2000/svg">
<rect width="340" height="340" fill="white"/>
<path d="M19.5898 214.465C27.5 214.465 32.0117 209.777 32.0117 201.457V190.852L39.3945 183.234L58.3789 207.316C62.4219 212.473 66.0547 214.465 71.3867 214.465C78.1836 214.465 83.3398 209.25 83.3398 202.453C83.3398 198.938 81.5234 195.188 77.2461 189.914L58.9648 167.297L76.4258 148.664C79.9414 144.914 81.2305 142.219 81.2305 138.469C81.2305 132.082 75.957 126.984 69.4531 126.984C65.2344 126.984 62.0117 128.625 58.4375 132.609L32.4805 161.965H32.0117V139.992C32.0117 131.672 27.5 126.984 19.5898 126.984C11.6797 126.984 7.16797 131.672 7.16797 139.992V201.457C7.16797 209.777 11.6797 214.465 19.5898 214.465ZM104.141 213.82C110.879 213.82 116.328 208.371 116.328 201.633C116.328 194.895 110.879 189.445 104.141 189.445C97.4023 189.445 91.9531 194.895 91.9531 201.633C91.9531 208.371 97.4023 213.82 104.141 213.82ZM140.527 214.465C148.438 214.465 152.949 209.777 152.949 201.457V139.992C152.949 131.672 148.438 126.984 140.527 126.984C132.617 126.984 128.105 131.672 128.105 139.992V201.457C128.105 209.777 132.617 214.465 140.527 214.465ZM176.914 213.82C183.652 213.82 189.102 208.371 189.102 201.633C189.102 194.895 183.652 189.445 176.914 189.445C170.176 189.445 164.727 194.895 164.727 201.633C164.727 208.371 170.176 213.82 176.914 213.82ZM211.719 214.465C218.633 214.465 222.559 210.305 222.559 202.98V164.016H223.027L239.844 206.379C241.484 210.598 244.355 212.59 248.809 212.59C253.203 212.59 255.898 210.656 257.598 206.379L274.414 164.016H274.883V202.98C274.883 210.305 278.809 214.465 285.723 214.465C292.637 214.465 296.562 210.305 296.562 202.98V143.273C296.562 132.844 290.82 126.984 280.449 126.984C271.719 126.984 267.09 130.441 263.574 139.641L248.984 177.785H248.516L233.867 139.641C230.352 130.441 225.723 126.984 216.992 126.984C206.621 126.984 200.879 132.844 200.879 143.273V202.98C200.879 210.305 204.805 214.465 211.719 214.465ZM320.586 213.82C327.324 213.82 332.773 208.371 332.773 201.633C332.773 194.895 327.324 189.445 320.586 189.445C313.848 189.445 308.398 194.895 308.398 201.633C308.398 208.371 313.848 213.82 320.586 213.82Z" fill="white"/>
</svg>
